<svg id="Layer_1" data-name="Layer 1" xmlns="http://www.w3.org/2000/svg" viewBox="0 0 100 50"><defs><style>.cls-1,.cls-4{fill:#2774ae;}.cls-1{fill-rule:evenodd;}.cls-2{fill:#48a9c5;}.cls-3{fill:#dbdbdb;}</style></defs><path class="cls-1" d="M24,5a5.51,5.51,0,0,1,5.41,6.5h.09A3.5,3.5,0,0,1,33,14.71V30.4a5.49,5.49,0,0,1-1.5,9.89V43.5a1.5,1.5,0,0,1-3,.2V40.5h-13v3a1.5,1.5,0,0,1-3,.2V40.29a5.5,5.5,0,0,1-1.5-9.9V15a3.5,3.5,0,0,1,3.21-3.49h.38A5.51,5.51,0,0,1,19.67,5H24Zm6,27.5H14a2.5,2.5,0,0,0-.25,5H30a2.5,2.5,0,0,0,.25-5Zm-22-9a1.5,1.5,0,0,1,1.49,1.3V29a1.5,1.5,0,0,1-3,.2V25A1.5,1.5,0,0,1,8,23.5Zm28,0a1.5,1.5,0,0,1,1.49,1.3V29a1.5,1.5,0,0,1-3,.2V25A1.5,1.5,0,0,1,36,23.5Zm-8.23-9A5.44,5.44,0,0,1,24.43,16L24,16H20a5.46,5.46,0,0,1-3.77-1.5H14v15H30v-15ZM24,8H20a2.5,2.5,0,0,0-.26,5H24a2.5,2.5,0,0,0,.26-5Z"/><path class="cls-1" d="M80,5a5.51,5.51,0,0,1,5.41,6.5h.09A3.5,3.5,0,0,1,89,14.71V30.4a5.49,5.49,0,0,1-1.5,9.89V43.5a1.5,1.5,0,0,1-3,.2V40.5h-13v3a1.5,1.5,0,0,1-3,.2V40.29a5.5,5.5,0,0,1-1.5-9.9V15a3.5,3.5,0,0,1,3.21-3.49h.38A5.51,5.51,0,0,1,75.67,5H80Zm6,27.5H70a2.5,2.5,0,0,0-.25,5H86a2.5,2.5,0,0,0,.25-5Zm-22-9a1.5,1.5,0,0,1,1.49,1.3V29a1.5,1.5,0,0,1-3,.2V25A1.5,1.5,0,0,1,64,23.5Zm28,0a1.5,1.5,0,0,1,1.49,1.3V29a1.5,1.5,0,0,1-3,.2V25A1.5,1.5,0,0,1,92,23.5Zm-8.22-9A5.49,5.49,0,0,1,80.43,16L80,16H76a5.51,5.51,0,0,1-3.78-1.5H70v15H86v-15ZM80,8H76a2.5,2.5,0,0,0-.26,5H80a2.5,2.5,0,0,0,.26-5Z"/><polygon class="cls-2" points="64.5 21.44 67 20 64.5 18.56 64.5 18.5 64.4 18.5 62.5 17.4 62.5 18.5 37.5 18.5 37.5 17.4 35.6 18.5 35.5 18.5 35.5 18.56 33 20 35.5 21.44 35.5 21.5 35.6 21.5 37.5 22.6 37.5 21.5 62.5 21.5 62.5 22.6 64.4 21.5 64.5 21.5 64.5 21.44"/><path class="cls-3" d="M42,17.5v-3h2.22A5.51,5.51,0,0,0,48,16h4l.43,0a5.49,5.49,0,0,0,3.35-1.48H58v3h3V14.71A3.5,3.5,0,0,0,57.5,11.5h-.09A5.51,5.51,0,0,0,52,5H47.66a5.51,5.51,0,0,0-5.07,6.49h-.38A3.5,3.5,0,0,0,39,15v2.5ZM48,8h4.26A2.5,2.5,0,0,1,52,13H47.74A2.5,2.5,0,0,1,48,8Z"/><path class="cls-4" d="M65.49,24.8a1.5,1.5,0,0,0-3,.2v4.2a1.5,1.5,0,0,0,3-.2V24.8Z"/><path class="cls-3" d="M61,30.4V22.5H58v7H42v-7H39v7.89a5.5,5.5,0,0,0,1.5,9.9V43.7a1.5,1.5,0,0,0,3-.2v-3h13v3.2a1.5,1.5,0,0,0,3-.2V40.29A5.49,5.49,0,0,0,61,30.4Zm-3,7.1H41.75a2.5,2.5,0,0,1,.25-5H58.25a2.5,2.5,0,0,1-.25,5Z"/><path class="cls-4" d="M37.5,29V24.8a1.5,1.5,0,0,0-3,.2v4.2a1.5,1.5,0,0,0,3-.2Z"/></svg>