<svg width="31" height="31" viewBox="0 0 31 31" fill="none" xmlns="http://www.w3.org/2000/svg">
<path fill-rule="evenodd" clip-rule="evenodd" d="M5.462 12.8165L5.56383 12.9144L8.47008 16.1436C8.82799 16.5413 8.79575 17.1538 8.39807 17.5117C8.03654 17.8371 7.49745 17.84 7.13352 17.5391L7.02994 17.4397L5.89117 16.1756C6.23778 21.1845 10.4073 25.1875 15.5 25.1875L15.6315 25.1963C16.1043 25.2605 16.4688 25.6658 16.4688 26.1562C16.4688 26.6467 16.1043 27.052 15.6315 27.1162L15.5 27.125C9.27107 27.125 4.18636 22.226 3.88878 16.0708L2.65757 17.4397C2.29966 17.8374 1.68713 17.8696 1.28945 17.5117C0.92792 17.1864 0.86841 16.6506 1.12948 16.257L1.21744 16.1436L4.12369 12.9144C4.47645 12.5225 5.06923 12.4898 5.462 12.8165Z" fill="#48A9C5"/>
<path fill-rule="evenodd" clip-rule="evenodd" d="M18.088 24.8445C18.6227 24.8259 19.0713 25.2442 19.09 25.7789C19.1087 26.3136 18.6903 26.7622 18.1556 26.7809C17.6209 26.7995 17.1723 26.3812 17.1537 25.8465C17.135 25.3118 17.5533 24.8632 18.088 24.8445Z" fill="#48A9C5"/>
<path fill-rule="evenodd" clip-rule="evenodd" d="M20.6373 23.8249C21.172 23.8063 21.6206 24.2246 21.6393 24.7593C21.658 25.294 21.2397 25.7426 20.705 25.7613C20.1703 25.7799 19.7217 25.3616 19.703 24.8269C19.6843 24.2922 20.1026 23.8436 20.6373 23.8249Z" fill="#48A9C5"/>
<path fill-rule="evenodd" clip-rule="evenodd" d="M22.8432 22.2228C23.3779 22.2041 23.8264 22.6225 23.8451 23.1571C23.8638 23.6918 23.4455 24.1404 22.9108 24.1591C22.3761 24.1778 21.9275 23.7595 21.9088 23.2248C21.8901 22.6901 22.3085 22.2415 22.8432 22.2228Z" fill="#48A9C5"/>
<path fill-rule="evenodd" clip-rule="evenodd" d="M24.6498 20.2857C25.1845 20.267 25.6331 20.6853 25.6518 21.22C25.6704 21.7547 25.2521 22.2033 24.7174 22.222C24.1827 22.2407 23.7341 21.8223 23.7154 21.2876C23.6968 20.7529 24.1151 20.3043 24.6498 20.2857Z" fill="#48A9C5"/>
<path fill-rule="evenodd" clip-rule="evenodd" d="M15.5 3.875C21.7289 3.875 26.8136 8.77404 27.1112 14.9292L28.3424 13.5603C28.7003 13.1626 29.3129 13.1304 29.7106 13.4883C30.0721 13.8136 30.1316 14.3494 29.8705 14.743L29.7826 14.8564L26.8763 18.0856C26.5236 18.4775 25.9308 18.5102 25.538 18.1835L25.4362 18.0856L22.5299 14.8564C22.172 14.4587 22.2043 13.8462 22.6019 13.4883C22.9635 13.1629 23.5026 13.16 23.8665 13.4609L23.9701 13.5603L25.1088 14.8244C24.7622 9.81547 20.5927 5.8125 15.5 5.8125L15.3685 5.80366C14.8957 5.73951 14.5312 5.33419 14.5312 4.84375C14.5312 4.35331 14.8957 3.94799 15.3685 3.88384L15.5 3.875Z" fill="#2774AE"/>
<path fill-rule="evenodd" clip-rule="evenodd" d="M6.16661 8.93989C6.7009 8.91189 7.15673 9.32232 7.18473 9.85661C7.21273 10.3909 6.8023 10.8467 6.26801 10.8747C5.73372 10.9027 5.27789 10.4923 5.24989 9.95801C5.22189 9.42372 5.63232 8.96789 6.16661 8.93989Z" fill="#2774AE"/>
<path fill-rule="evenodd" clip-rule="evenodd" d="M7.93907 6.97151C8.47336 6.9435 8.92919 7.35393 8.95719 7.88823C8.98519 8.42252 8.57476 8.87835 8.04047 8.90635C7.50618 8.93435 7.05035 8.52392 7.02235 7.98963C6.99435 7.45534 7.40478 6.99951 7.93907 6.97151Z" fill="#2774AE"/>
<path fill-rule="evenodd" clip-rule="evenodd" d="M10.1168 5.33116C10.6511 5.30315 11.1069 5.71358 11.1349 6.24788C11.1629 6.78217 10.7525 7.238 10.2182 7.266C9.68391 7.294 9.22808 6.88357 9.20008 6.34928C9.17208 5.81499 9.58251 5.35916 10.1168 5.33116Z" fill="#2774AE"/>
<path fill-rule="evenodd" clip-rule="evenodd" d="M12.6478 4.26719C13.1821 4.23919 13.6379 4.64962 13.6659 5.18391C13.6939 5.7182 13.2835 6.17403 12.7492 6.20204C12.2149 6.23004 11.7591 5.81961 11.7311 5.28531C11.7031 4.75102 12.1135 4.29519 12.6478 4.26719Z" fill="#2774AE"/>
</svg>
