<svg id="Layer_1" data-name="Layer 1" xmlns="http://www.w3.org/2000/svg" viewBox="0 0 100 50"><defs><style>.cls-1{fill:none;}.cls-2{fill:#48a9c5;}.cls-3{fill:#dbdbdb;}.cls-4{fill:#2774ae;}</style></defs><path class="cls-1" d="M70.66,31.76a9.45,9.45,0,0,1,4.68,4.44,9.35,9.35,0,0,1,5.87,3.29A11.41,11.41,0,0,0,84,32V18a11.5,11.5,0,0,0-23,0v7a8.09,8.09,0,0,1,1.56-.15A8.2,8.2,0,0,1,70.66,31.76Z"/><path class="cls-2" d="M62.56,26.86a6.2,6.2,0,0,1,6.12,5.21l.17,1.08,1,.44a7.52,7.52,0,0,1,3.69,3.5L74,38l1,.16a7.21,7.21,0,0,1,4.73,2.75,10.89,10.89,0,0,0,1.45-1.43,9.35,9.35,0,0,0-5.87-3.29,9.45,9.45,0,0,0-4.68-4.44,8.2,8.2,0,0,0-8.1-6.9A8.09,8.09,0,0,0,61,25v2A6.18,6.18,0,0,1,62.56,26.86Z"/><path class="cls-1" d="M83.53,35.23c0,.19-.12.38-.19.57C83.41,35.61,83.48,35.42,83.53,35.23Z"/><path class="cls-1" d="M83.78,34.2c0,.17-.07.34-.11.51C83.71,34.54,83.75,34.37,83.78,34.2Z"/><path class="cls-1" d="M79,41.49c-.14.1-.29.19-.44.28C78.7,41.68,78.85,41.59,79,41.49Z"/><path class="cls-1" d="M71.36,43.44a4.44,4.44,0,0,1-.49-.07C71,43.39,71.2,43.43,71.36,43.44Z"/><path class="cls-1" d="M70.27,43.28c-.21,0-.43-.1-.64-.16C69.84,43.18,70.05,43.24,70.27,43.28Z"/><path class="cls-1" d="M82.29,38c-.13.23-.28.45-.43.67C82,38.45,82.16,38.23,82.29,38Z"/><path class="cls-1" d="M82.78,37.14c-.11.22-.23.43-.35.64C82.55,37.57,82.67,37.36,82.78,37.14Z"/><path class="cls-1" d="M77.16,42.51l-.46.19Z"/><path class="cls-1" d="M78.1,42l-.45.23Z"/><path class="cls-1" d="M69.23,43c-.25-.07-.49-.16-.73-.25C68.74,42.86,69,43,69.23,43Z"/><path class="cls-1" d="M75.11,43.19l-.44.1Z"/><path class="cls-1" d="M74,43.4l-.37,0Z"/><path class="cls-1" d="M83.19,36.21c-.08.21-.17.41-.26.61C83,36.62,83.11,36.42,83.19,36.21Z"/><path class="cls-1" d="M76.16,42.89c-.15.06-.3.1-.45.15C75.86,43,76,43,76.16,42.89Z"/><path class="cls-1" d="M83.94,33.12c0,.14,0,.27,0,.41C83.9,33.39,83.93,33.26,83.94,33.12Z"/><path class="cls-1" d="M81.76,38.8a7.23,7.23,0,0,1-.55.69A7.23,7.23,0,0,0,81.76,38.8Z"/><path class="cls-1" d="M61.24,34.34a10.64,10.64,0,0,0,.68,2.16h0A10.64,10.64,0,0,1,61.24,34.34Z"/><path class="cls-1" d="M64.77,40.5c.26.23.52.45.79.66-.27-.21-.53-.43-.79-.66Z"/><path class="cls-1" d="M81.21,39.49a9.73,9.73,0,0,1-.69.74A9.73,9.73,0,0,0,81.21,39.49Z"/><path class="cls-1" d="M61.24,34.33c-.07-.33-.12-.67-.16-1C61.12,33.66,61.17,34,61.24,34.33Z"/><path class="cls-1" d="M68.23,42.67l-.79-.35Z"/><path class="cls-1" d="M80.48,40.27c-.23.22-.47.44-.72.65C80,40.71,80.25,40.49,80.48,40.27Z"/><path class="cls-1" d="M66.4,41.74c-.28-.18-.56-.37-.82-.57C65.85,41.37,66.12,41.56,66.4,41.74Z"/><path class="cls-1" d="M67.29,42.24c-.28-.14-.56-.3-.82-.46C66.74,41.94,67,42.1,67.29,42.24Z"/><path class="cls-1" d="M61.06,33.18A11.51,11.51,0,0,1,61,32,11.51,11.51,0,0,0,61.06,33.18Z"/><path class="cls-1" d="M68,36.5a1,1,0,0,1,1,1v2a1,1,0,0,1-1,1H64.77c.26.23.52.45.79.66h0c.26.2.54.39.82.57l.07,0c.26.16.54.32.82.46l.15.08.79.35.27.1c.24.09.48.18.73.25l.4.1c.21.06.43.12.64.16l.6.09a4.44,4.44,0,0,0,.49.07,10.88,10.88,0,0,0,1.14.06,10,10,0,0,0,1.1-.06l.37,0,.7-.11.44-.1.6-.15c.15,0,.3-.09.45-.15l.54-.19.46-.19.49-.24L78.1,42l.45-.27c.15-.09.3-.18.44-.28s.52-.37.77-.57.49-.43.72-.65c0,0,0,0,0,0a9.73,9.73,0,0,0,.69-.74h0a7.23,7.23,0,0,0,.55-.69,1.47,1.47,0,0,1,.1-.13c.15-.22.3-.44.43-.67l.14-.22c.12-.21.24-.42.35-.64l.15-.32c.09-.2.18-.4.26-.61a2.86,2.86,0,0,0,.15-.41c.07-.19.14-.38.19-.57s.09-.35.14-.52.08-.34.11-.51.08-.45.11-.67,0-.27,0-.41A10.37,10.37,0,0,0,84,32V18a11.5,11.5,0,0,0-23,0V32a11.51,11.51,0,0,0,.06,1.18s0,.09,0,.13c0,.35.09.69.16,1h0a10.64,10.64,0,0,0,.68,2.16Z"/><path class="cls-3" d="M82.43,37.78l-.14.22Z"/><path class="cls-3" d="M81.86,38.67a1.47,1.47,0,0,0-.1.13A1.47,1.47,0,0,1,81.86,38.67Z"/><path class="cls-3" d="M61.08,33.31s0-.08,0-.13S61.08,33.27,61.08,33.31Z"/><path class="cls-3" d="M84,32a10.37,10.37,0,0,1-.06,1.12A10.37,10.37,0,0,0,84,32Z"/><path class="cls-3" d="M61.24,34.34h0Z"/><path class="cls-3" d="M83.89,33.53c0,.22-.06.45-.11.67C83.83,34,83.86,33.75,83.89,33.53Z"/><path class="cls-3" d="M83.34,35.8a2.86,2.86,0,0,1-.15.41A2.86,2.86,0,0,0,83.34,35.8Z"/><path class="cls-3" d="M83.67,34.71c0,.17-.09.35-.14.52C83.58,35.06,83.62,34.88,83.67,34.71Z"/><path class="cls-3" d="M82.93,36.82l-.15.32Z"/><path class="cls-3" d="M69.63,43.12l-.4-.1Z"/><path class="cls-3" d="M68.5,42.77l-.27-.1Z"/><path class="cls-3" d="M70.87,43.37l-.6-.09Z"/><polygon class="cls-3" points="81.21 39.49 81.21 39.49 81.21 39.49 81.21 39.49"/><path class="cls-3" d="M73.6,43.44a10,10,0,0,1-1.1.06A10,10,0,0,0,73.6,43.44Z"/><path class="cls-3" d="M67.44,42.32l-.15-.08Z"/><path class="cls-3" d="M65.58,41.17h0Z"/><path class="cls-3" d="M66.47,41.78l-.07,0Z"/><path class="cls-3" d="M72.5,43.5a10.88,10.88,0,0,1-1.14-.06A10.88,10.88,0,0,0,72.5,43.5Z"/><path class="cls-3" d="M79.76,40.92h0c-.25.2-.51.39-.77.57C79.25,41.31,79.51,41.12,79.76,40.92Z"/><path class="cls-3" d="M78.55,41.77,78.1,42Z"/><path class="cls-3" d="M80.52,40.23s0,0,0,0S80.51,40.25,80.52,40.23Z"/><path class="cls-3" d="M74.67,43.29l-.7.11Z"/><path class="cls-3" d="M77.65,42.27l-.49.24Z"/><path class="cls-3" d="M75.71,43l-.6.15Z"/><path class="cls-3" d="M76.7,42.7l-.54.19Z"/><path class="cls-1" d="M69,37.5v2a1,1,0,0,1-1,1H64.77c.26.23.52.45.79.66h0c.27.2.54.39.82.57l.07,0c.27.16.54.32.82.46l.15.08.79.35.27.1c.24.09.48.18.73.25l.4.1c.21.06.42.12.64.16l.6.09c.17,0,.33.06.49.07a10.88,10.88,0,0,0,1.14.06,10,10,0,0,0,1.1-.06l.37,0,.7-.11.44-.1.6-.15c.15,0,.3-.09.45-.15l.54-.19.46-.19.49-.24L78.1,42l.45-.27c.15-.09.3-.18.44-.28s.52-.37.77-.57.49-.43.72-.65c0,0,0,0,0,0a9.73,9.73,0,0,0,.69-.74h0a7.23,7.23,0,0,0,.55-.69,1.47,1.47,0,0,1,.1-.13c.15-.22.3-.44.43-.67l.14-.22c.12-.21.24-.42.35-.64l.15-.32c.09-.2.18-.4.26-.61a2.86,2.86,0,0,0,.15-.41c.07-.19.14-.38.19-.57s.09-.35.14-.52.08-.34.11-.51.08-.45.11-.67,0-.27,0-.41A10.37,10.37,0,0,0,84,32V18a11.5,11.5,0,0,0-23,0V32a11.51,11.51,0,0,0,.06,1.18s0,.09,0,.13c0,.35.09.69.16,1h0a10.64,10.64,0,0,0,.68,2.16H68A1,1,0,0,1,69,37.5Z"/><path class="cls-3" d="M72.5,3.5A14.5,14.5,0,0,0,58,18V32a14.57,14.57,0,0,0,.72,4.5h3.2a10.64,10.64,0,0,1-.68-2.16h0c-.07-.33-.12-.67-.16-1,0,0,0-.08,0-.13A11.51,11.51,0,0,1,61,32V18a11.5,11.5,0,0,1,23,0V32a10.37,10.37,0,0,1-.06,1.12c0,.14,0,.27,0,.41s-.06.45-.11.67-.07.34-.11.51-.09.35-.14.52-.12.38-.19.57a2.86,2.86,0,0,1-.15.41c-.08.21-.17.41-.26.61l-.15.32c-.11.22-.23.43-.35.64l-.14.22c-.13.23-.28.45-.43.67a1.47,1.47,0,0,0-.1.13,7.23,7.23,0,0,1-.55.69h0a9.73,9.73,0,0,1-.69.74s0,0,0,0c-.23.22-.47.44-.72.65s-.51.39-.77.57-.29.19-.44.28L78.1,42l-.45.23-.49.24-.46.19-.54.19c-.15.06-.3.1-.45.15l-.6.15-.44.1-.7.11-.37,0a10,10,0,0,1-1.1.06,10.88,10.88,0,0,1-1.14-.06c-.16,0-.32,0-.49-.07l-.6-.09c-.22,0-.43-.1-.64-.16l-.4-.1c-.25-.07-.49-.16-.73-.25l-.27-.1-.79-.35-.15-.08c-.28-.14-.55-.3-.82-.46l-.07,0c-.28-.18-.55-.37-.82-.57h0c-.27-.21-.53-.43-.79-.66h-4A14.49,14.49,0,0,0,87,32V18A14.5,14.5,0,0,0,72.5,3.5Z"/><path class="cls-4" d="M68,40.5a1,1,0,0,0,1-1v-2a1,1,0,0,0-1-1H14a1,1,0,0,0-1,1v2a1,1,0,0,0,1,1H68Z"/><polygon class="cls-1" points="35.45 34.5 46.55 34.5 48.01 25.5 33.99 25.5 35.45 34.5"/><polygon class="cls-1" points="48.83 20.5 33.17 20.5 33.66 23.5 48.34 23.5 48.83 20.5"/><polygon class="cls-3" points="33.66 23.5 33.99 25.5 48.01 25.5 48.34 23.5 33.66 23.5"/><path class="cls-2" d="M50.35,19.2a2,2,0,0,0-1.53-.7H33.18a2,2,0,0,0-2,2.32l2.28,14a2,2,0,0,0,2,1.68h11.1a2,2,0,0,0,2-1.68l2.28-14A2,2,0,0,0,50.35,19.2Zm-3.8,15.3H35.45L34,25.5l-.33-2-.48-3H48.82l-.48,3-.33,2Z"/></svg>