<svg width="151" height="102" viewBox="0 0 151 102" fill="none" xmlns="http://www.w3.org/2000/svg">
<path d="M63.6884 95.1504L63.6284 94.9004C63.5184 94.3304 63.3984 93.7703 63.2584 93.2104C63.2584 93.1204 63.2584 93.0203 63.1884 92.9203C63.0184 92.2703 62.8284 91.6203 62.6084 90.9203C62.5584 90.7403 62.4884 90.5603 62.4284 90.3803C62.2584 89.9003 62.0884 89.3803 61.8984 88.9503L61.6584 88.3403C61.4584 87.8503 61.2384 87.3403 61.0084 86.8503L60.8184 86.4203C60.5184 85.7803 60.1984 85.1504 59.8184 84.5104L59.6584 84.2204C59.3717 83.687 59.0717 83.157 58.7584 82.6303L58.4384 82.0903C58.1484 81.6203 57.8584 81.1504 57.5584 80.6804L57.2384 80.1904C56.4917 79.0104 55.6484 77.8137 54.7084 76.6003L54.3084 76.0704C53.9784 75.6404 53.6384 75.2204 53.3084 74.7904L52.8184 74.1703L52.5184 73.8004C49.8884 70.6004 46.9684 67.4703 43.9184 64.3803L43.7084 64.1604L42.4784 62.9304C40.1184 60.5804 37.7084 58.2504 35.2984 55.9304C27.8684 48.8404 20.6584 41.9104 15.8184 34.7504V54.9004C15.8329 67.1515 20.6651 78.9054 29.2716 87.6242C37.8782 96.3429 49.5685 101.327 61.8184 101.5L64.1884 99.7504C64.1433 98.2062 63.9761 96.6681 63.6884 95.1504ZM31.2584 73.8803L43.5784 64.6404L50.2684 74.7504L30.8784 83.2703L31.2584 73.8803ZM80.8484 93.0603C80.6784 93.8403 80.5284 94.6204 80.4084 95.4104L79.6884 94.8604C79.6884 94.8604 79.8884 81.2303 80.1084 66.0903L80.7484 66.3704L84.6384 68.0704L92.1184 71.3204V71.3904C91.3084 72.3904 90.5284 73.3904 89.7784 74.4903C87.4987 77.6288 85.5231 80.9773 83.8784 84.4903L83.4384 85.4903C83.3784 85.6303 83.3184 85.7604 83.2684 85.9004C83.1284 86.2104 82.9984 86.5303 82.8784 86.9004L82.6984 87.3503C82.5784 87.6603 82.4684 87.9703 82.3584 88.2703L82.1784 88.7803C82.0784 89.0704 81.9783 89.3704 81.8884 89.6604L81.7084 90.2304L81.4684 91.0704C81.4084 91.2803 81.3584 91.4903 81.2984 91.7003C81.2384 91.9103 81.1584 92.2304 81.0984 92.5004L80.8484 93.0603ZM134.118 20.9904C132.298 30.9904 121.798 41.0403 110.748 51.6703C107.688 54.6103 104.538 57.6704 101.478 60.7604L80.4084 44.9304C80.5484 34.9304 80.6484 29.9304 80.6484 28.9304C80.6484 25.9304 78.6484 18.0504 75.2284 18.0504C71.8084 18.0504 69.7184 25.9504 69.7184 28.9304C69.7184 29.9304 69.8284 34.8404 69.9684 44.8204L48.7384 60.7504C45.6784 57.6203 42.5284 54.6003 39.4684 51.6604C28.4184 41.0404 17.9184 30.9604 16.1184 20.9904H22.9284C31.1846 21.0054 39.2886 23.2131 46.4116 27.3878C53.5346 31.5625 59.4209 37.5543 63.4684 44.7504L65.9384 42.9004C65.8684 38.3204 65.8084 34.9604 65.7684 32.6703C65.7684 30.6703 65.7184 29.4204 65.7184 28.9904C65.7184 25.1704 68.0584 14.1104 75.2284 14.1104C82.3984 14.1104 84.6484 25.1704 84.6484 28.9904C84.6484 29.4204 84.6484 30.6203 84.6484 32.6903C84.6484 34.9903 84.5484 38.3904 84.4884 43.0004L86.7584 44.7504C90.8172 37.5613 96.7115 31.5784 103.839 27.4128C110.967 23.2472 119.073 21.0482 127.328 21.0404L134.118 20.9904ZM114.908 55.9903C112.018 58.7703 109.118 61.5603 106.318 64.3904C103.318 67.4804 100.318 70.6103 97.7184 73.8103C91.0884 81.8703 86.3184 90.3604 86.0384 99.6504L88.5184 101.51C100.749 101.309 112.411 96.3118 120.994 87.5961C129.577 78.8803 134.394 67.1427 134.408 54.9104V34.7504C129.578 41.9104 122.368 48.8403 114.928 55.9903H114.908ZM99.9684 74.7504L106.658 64.6104L118.978 73.8503L119.358 83.2403L99.9684 74.7504ZM69.8984 94.8604L69.1684 95.4104C69.0484 94.5804 68.8884 93.7703 68.7084 92.9503L68.5884 92.4203C68.5184 92.1104 68.4384 91.8003 68.3584 91.4903C68.2784 91.1804 68.2684 91.1603 68.2284 90.9903C68.1884 90.8204 68.0384 90.3503 67.9484 89.9903C67.9484 89.8503 67.8584 89.7004 67.8084 89.5504C67.7084 89.217 67.5984 88.8837 67.4784 88.5504C67.4784 88.4104 67.3884 88.2803 67.3384 88.1504C67.2184 87.8104 67.0884 87.4704 66.9584 87.1504C66.9584 87.0404 66.8784 86.9304 66.8284 86.8204C66.6884 86.4604 66.5484 86.1104 66.3984 85.7504L66.2684 85.4704C66.1184 85.1003 65.9484 84.7404 65.7884 84.3704C64.1464 80.9052 62.1845 77.6009 59.9284 74.5004C59.155 73.4337 58.355 72.3737 57.5284 71.3204L69.5284 66.0903V66.3704C69.5284 66.7804 69.5284 67.1903 69.5284 67.6003V69.0203C69.7184 82.9403 69.8984 94.8604 69.8984 94.8604Z" fill="#52B28F"/>
<path d="M150.24 0V43.29C150.238 52.5931 148.043 61.7646 143.831 70.0597C139.619 78.3547 133.51 85.5394 126 91.03C135.265 81.2831 140.427 68.3475 140.42 54.9V14.99H127.33C119.685 14.9892 112.132 16.6578 105.199 19.8791C98.2658 23.1004 92.1197 27.7968 87.19 33.64C92.0203 23.5736 99.595 15.0757 109.042 9.12436C118.489 3.17306 129.425 0.0102621 140.59 0H150.24ZM9.82 54.9V14.99H22.91C30.555 14.9892 38.1079 16.6578 45.041 19.8791C51.9742 23.1004 58.1203 27.7968 63.05 33.64C58.2197 23.5736 50.645 15.0757 41.198 9.12436C31.7509 3.17306 20.8154 0.0102621 9.65 0H0V43.29C0.0030895 52.5928 2.19962 61.7638 6.41131 70.0586C10.623 78.3534 16.7312 85.5383 24.24 91.03C14.9754 81.2831 9.81255 68.3475 9.82 54.9Z" fill="#B3D57D"/>
</svg>
