<svg id="Layer_1" data-name="Layer 1" xmlns="http://www.w3.org/2000/svg" viewBox="0 0 100 50"><defs><style>.cls-1{fill:#48a9c5;}.cls-1,.cls-3,.cls-4{fill-rule:evenodd;}.cls-2,.cls-3{fill:#dbdbdb;}.cls-4,.cls-5{fill:#2774ae;}</style></defs><polygon class="cls-1" points="57.77 35 53.44 32.4 53.44 34 41.81 34 42.15 36 53.44 36 53.44 37.6 57.77 35"/><polygon class="cls-1" points="54.77 18 50.44 15.4 50.44 17 26.66 17 26.91 19 50.44 19 50.44 20.6 54.77 18"/><rect class="cls-2" x="59.62" y="41.44" width="14.28" height="3.81" rx="1"/><path class="cls-3" d="M55.57,13.44a2,2,0,1,1,4-.4l1.23,13.12a.28.28,0,0,1,0,.09,13.16,13.16,0,0,0,1.45,5.16,5.67,5.67,0,0,0,3.66,2.39,2.31,2.31,0,0,0,.37,0l5.72,0a1.9,1.9,0,0,1,0,3.79h-5.9a9.13,9.13,0,0,1-6.72-3.55c-1.85-2.41-2.29-6.36-2.31-6.58v0Z"/><path class="cls-4" d="M65.39,13.08A1.88,1.88,0,0,1,67,11h0a1.89,1.89,0,0,1,2.19,1.65l.31,2.7.93,7.5s.15,1.13,1,1.36a5.18,5.18,0,0,0,1.57.25h5.17s3.7,0,4.63,1.18a9.26,9.26,0,0,1,1.16,3.11s0,.07,0,.11l1.67,10c0,.16,0,.32.07.48.06.58.25,2,.71,2.19a23.32,23.32,0,0,0,4.13.07,1.85,1.85,0,0,1,1.91,1.84h0a1.82,1.82,0,0,1-1.82,1.83H85.35a3.61,3.61,0,0,1-2-.7c-.83-.68-1.18-2.7-1.26-3.25A2.51,2.51,0,0,0,82,41L80.23,30.75V30.7c0-.31-.56-2.89-2.08-2.89h-5.2c-.37,0-3.71,0-4.85-1.28a6.58,6.58,0,0,1-1.43-3.2h0Z"/><circle class="cls-5" cx="66.49" cy="5.88" r="3.13"/><rect class="cls-2" x="15.62" y="41.44" width="14.28" height="3.81" rx="1"/><path class="cls-3" d="M11.57,13.44a2,2,0,1,1,4-.4l1.23,13.12a.28.28,0,0,1,0,.09,13.16,13.16,0,0,0,1.45,5.16,5.67,5.67,0,0,0,3.66,2.39,2.31,2.31,0,0,0,.37,0l5.72,0a1.9,1.9,0,0,1,0,3.79h-5.9a9.13,9.13,0,0,1-6.72-3.55c-1.85-2.41-2.29-6.36-2.31-6.58v0Z"/><path class="cls-4" d="M21.39,13.08A1.88,1.88,0,0,1,23,11h0a1.89,1.89,0,0,1,2.19,1.65l.31,2.7.93,7.5s.15,1.13,1,1.36a5.18,5.18,0,0,0,1.57.25h5.17s3.7,0,4.63,1.18a9.26,9.26,0,0,1,1.16,3.11s0,.07,0,.11l1.67,10c0,.16.05.32.07.48.06.58.25,2,.71,2.19a23.32,23.32,0,0,0,4.13.07,1.85,1.85,0,0,1,1.91,1.84h0a1.82,1.82,0,0,1-1.82,1.83H41.35a3.61,3.61,0,0,1-2-.7c-.83-.68-1.18-2.7-1.26-3.25A2.51,2.51,0,0,0,38,41L36.23,30.75V30.7c0-.31-.56-2.89-2.08-2.89h-5.2c-.37,0-3.71,0-4.85-1.28a6.58,6.58,0,0,1-1.43-3.2h0Z"/><circle class="cls-5" cx="22.49" cy="5.88" r="3.13"/></svg>