<?xml version="1.0" encoding="utf-8"?>
<!-- Generator: Adobe Illustrator 25.0.0, SVG Export Plug-In . SVG Version: 6.00 Build 0)  -->
<svg version="1.1" id="Layer_1" xmlns="http://www.w3.org/2000/svg" xmlns:xlink="http://www.w3.org/1999/xlink" x="0px" y="0px"
	 viewBox="0 0 100 50" style="enable-background:new 0 0 100 50;" xml:space="preserve">
<style type="text/css">
	.st0{fill-rule:evenodd;clip-rule:evenodd;fill:#48A9C5;}
	.st1{fill:#DBDBDB;}
	.st2{fill-rule:evenodd;clip-rule:evenodd;fill:#DBDBDB;}
	.st3{fill:#2774AE;}
	.st4{fill-rule:evenodd;clip-rule:evenodd;fill:#2774AE;}
</style>
<path class="st0" d="M57.8,35l-4.4-2.6V34H41.8l0.3,2h11.3v1.6L57.8,35z"/>
<path class="st0" d="M54.8,18l-4.4-2.6V17H26.7l0.2,2h23.5v1.6L54.8,18z"/>
<path class="st1" d="M72.9,41.4H60.6c-0.6,0-1,0.4-1,1v1.8c0,0.6,0.4,1,1,1h12.3c0.6,0,1-0.4,1-1v-1.8
	C73.9,41.8,73.5,41.4,72.9,41.4z"/>
<path class="st2" d="M55.6,13.4c-0.1-0.5,0.1-1.1,0.4-1.5c0.3-0.4,0.8-0.7,1.4-0.7c0.5-0.1,1.1,0.1,1.5,0.4c0.4,0.3,0.7,0.8,0.7,1.4
	l1.2,13.1v0.1c0.1,1.8,0.6,3.6,1.4,5.2c0.9,1.3,2.2,2.1,3.7,2.4H72c0.5,0,1,0.2,1.3,0.6s0.6,0.8,0.6,1.3c0,0.5-0.2,1-0.6,1.3
	s-0.8,0.6-1.3,0.6h-5.9c-1.3-0.1-2.6-0.4-3.7-1.1c-1.2-0.6-2.2-1.5-3-2.5c-1.3-2-2-4.3-2.3-6.6L55.6,13.4z"/>
<path class="st3" d="M66.5,9c1.7,0,3.1-1.4,3.1-3.1c0-1.7-1.4-3.1-3.1-3.1s-3.1,1.4-3.1,3.1C63.4,7.6,64.8,9,66.5,9z"/>
<path class="st1" d="M28.9,41.4H16.6c-0.6,0-1,0.4-1,1v1.8c0,0.6,0.4,1,1,1h12.3c0.6,0,1-0.4,1-1v-1.8
	C29.9,41.8,29.5,41.4,28.9,41.4z"/>
<path class="st2" d="M11.6,13.4c-0.1-0.5,0.1-1.1,0.4-1.5c0.3-0.4,0.8-0.7,1.4-0.7c0.5-0.1,1.1,0.1,1.5,0.4c0.4,0.3,0.7,0.8,0.7,1.4
	l1.2,13.1v0.1c0.1,1.8,0.6,3.6,1.4,5.2c0.9,1.3,2.2,2.1,3.7,2.4H28c0.5,0,1,0.2,1.3,0.6s0.6,0.8,0.6,1.3c0,0.5-0.2,1-0.6,1.3
	s-0.8,0.6-1.3,0.6h-5.9c-1.3-0.1-2.6-0.4-3.7-1.1c-1.2-0.6-2.2-1.5-3-2.5c-1.3-2-2-4.3-2.3-6.6L11.6,13.4z"/>
<path class="st4" d="M21.4,13.1c0-0.5,0.1-1,0.4-1.4c0.3-0.4,0.7-0.7,1.2-0.7c0.3,0,0.5,0,0.8,0c0.2,0.1,0.5,0.2,0.7,0.3
	c0.2,0.1,0.4,0.3,0.5,0.6c0.1,0.2,0.2,0.5,0.2,0.7l0.3,2.7l0.9,7.5c0,0,0.2,1.1,1,1.4c0.5,0.1,1.1,0.2,1.6,0.2h5.2
	c0,0,3.7,0,4.6,1.2c0.9,1.2,1,2,1.2,3.1c0.5,3.1,1.8,10.6,1.8,10.6s0.2,2.3,1.7,2.3s2.7,0,3.1,0c0.4,0,1,0.2,1.3,0.5
	c0.4,0.3,0.6,0.8,0.6,1.3c0,0.2,0,0.5-0.1,0.7c-0.1,0.2-0.2,0.4-0.4,0.6c-0.2,0.2-0.4,0.3-0.6,0.4s-0.5,0.1-0.7,0.1h-5.3
	c-0.7,0-1.4-0.3-2-0.7c-1-0.8-1.2-2.7-1.3-3.2l-1.8-10.7c-0.1-0.3-0.8-2.9-2.3-2.9h-5c-0.4,0-3.7,0-4.8-1.3c-0.8-0.9-1.3-2-1.4-3.2
	L21.4,13.1z"/>
<path class="st4" d="M66,13.1c0-0.5,0.1-1,0.4-1.4c0.3-0.4,0.7-0.7,1.2-0.7c0.3,0,0.5,0,0.8,0c0.2,0.1,0.5,0.2,0.7,0.3
	c0.2,0.1,0.4,0.3,0.5,0.6c0.1,0.2,0.2,0.5,0.2,0.7l0.3,2.7l0.9,7.5c0,0,0.2,1.1,1,1.4c0.5,0.1,1.1,0.2,1.6,0.2h5.2
	c0,0,3.7,0,4.6,1.2c0.9,1.2,1,2,1.2,3.1c0.5,3.1,1.8,10.6,1.8,10.6s0.2,2.3,1.7,2.3s2.7,0,3.1,0c0.4,0,1,0.2,1.3,0.5
	c0.4,0.3,0.6,0.8,0.6,1.3c0,0.2,0,0.5-0.1,0.7c-0.1,0.2-0.2,0.4-0.4,0.6c-0.2,0.2-0.4,0.3-0.6,0.4c-0.2,0.1-0.5,0.1-0.7,0.1H86
	c-0.7,0-1.4-0.3-2-0.7c-1-0.8-1.2-2.7-1.3-3.2l-1.8-10.7c-0.1-0.3-0.8-2.9-2.3-2.9h-5c-0.4,0-3.7,0-4.8-1.3c-0.8-0.9-1.3-2-1.4-3.2
	L66,13.1z"/>
<path class="st3" d="M22.5,9c1.7,0,3.1-1.4,3.1-3.1c0-1.7-1.4-3.1-3.1-3.1s-3.1,1.4-3.1,3.1C19.4,7.6,20.8,9,22.5,9z"/>
</svg>
