<svg xmlns="http://www.w3.org/2000/svg" viewBox="0 0 14 14"><defs><style>.cls-1{fill:#01426a;}.cls-2{fill:#fff;}</style></defs><title>availablemdpi</title><g id="available"><rect class="cls-1" x="-0.08" width="14.08" height="14" rx="1" ry="1"/><path class="cls-2" d="M12.36,5.28a7.06,7.06,0,0,0-3.77-.43A6.94,6.94,0,0,0,7,1.42,6.94,6.94,0,0,0,5.42,4.85a7.06,7.06,0,0,0-3.77.43,7,7,0,0,0,2.8,2.55,6.92,6.92,0,0,0-.75,3.7A7,7,0,0,0,7,9.42a7,7,0,0,0,3.31,2.11,6.92,6.92,0,0,0-.75-3.7A7,7,0,0,0,12.36,5.28Z"/></g></svg>