<svg xmlns="http://www.w3.org/2000/svg" viewBox="0 0 14 14"><defs><style>.cls-1{fill:#01426a;}</style></defs><title>notAvailablemdpi</title><g id="available"><path class="cls-1" d="M13.08,1V13H1V1H13.08m0-1H1A1,1,0,0,0,0,1V13a1,1,0,0,0,1,1H13.08a1,1,0,0,0,1-1V1a1,1,0,0,0-1-1Z"/><path class="cls-1" d="M12.44,5.28a7.06,7.06,0,0,0-3.77-.43A6.94,6.94,0,0,0,7.09,1.42,6.94,6.94,0,0,0,5.51,4.85a7.06,7.06,0,0,0-3.77.43,7,7,0,0,0,2.8,2.55,6.92,6.92,0,0,0-.75,3.7A7,7,0,0,0,7.09,9.42a7,7,0,0,0,3.31,2.11,6.92,6.92,0,0,0-.75-3.7A7,7,0,0,0,12.44,5.28Z"/></g></svg>